<svg xmlns="http://www.w3.org/2000/svg" viewBox="0 0 76.02 50.16"><defs><style>.cls-1{fill:#21272e;}</style></defs><title>icon-tree</title><g id="Layer_2" data-name="Layer 2"><g id="Layer_1-2" data-name="Layer 1"><path class="cls-1" d="M75.2,31.52c-.36,0-1-.11.07-1.17a2.22,2.22,0,0,0,.35-3c-.42-.48-.62.17-1-.08s-.06-1.22-.06-1.76-.63,0-1.24.31a2.14,2.14,0,0,1-1.46,0,3.88,3.88,0,0,0,.84-2.07c.13-.4.08-.91-.32-.5s-.87-.75-.93-1.15a4.64,4.64,0,0,1-.23-1.56A1.75,1.75,0,0,0,71,19.18c-.31-.41-.37-.19-.62-.19s-.5-.54-.45-1.38a12.83,12.83,0,0,0-.11-1.76c0-.66-.65-.64-1-1s.12-.85.17-1.76-.83-.79-.73-1.39-.53-.54-.53-.54c-.19.54-.32.3-.59.38s-.32-1.06-.19-1.62a1,1,0,0,0-.65-1.1.81.81,0,0,1-.33-1.25c.42-.61-.62-.38-.84-.44s-.48-.41-.75-.14-.37.18-.71,0a.93.93,0,0,0-1,.22c-.21.22-.92-.21-.63-.75s0-1.11-.3-1.09a.49.49,0,0,1-.41-.59c.09-.18.47-.55.11-.8s-.72.08-1.21.13-.49-.62-.53-1-.54.16-.61.24-.42.71-1,.56-.4-.72-.33-.93-.06-.69-.53-.5-.61-.32-.55-.53S57.25,1,56.46,1s-1.39,1.2-1.7,1.58S54.37,1.91,54.2,1s-1.14-.7-1.44-1-1,.27-.71.59,0,.62-.08.94,0,.54.19,1.16-.51.57-.62.79-.53-.08-.42-.71-.3-.72-.36-.58-.4.34-.4.07-.28-.26-.53-.23-.09.41-.43.27-.42.42-.51.52-.39.12-.61,0-.23-.26-.06-.7a1.13,1.13,0,0,0,.13-.9c-.1-.39-.57-.55-.55-.17s-.89.55-1.17.86-.86.37-.8,0-.32-.72-.5-.85a9.77,9.77,0,0,1-1-.53c-.43-.33-.82-.05-.82.09s0,.39-.38.31a.54.54,0,0,0-.66.25c-.17.22,0,.72,0,1s-.44.37-.62.52-.52.12-.62.27.09.53.27.85.29.85.1,1.1-.85-.12-1.23-.43-.43.08-.68.17-.18-.36-.15-.76-.45-.76-.73-.75-.31-.35-.41-.58-.44.19-.54.48.09.86,0,1-.32.06-.45-.35-.12-.68-.2-.94-.3-.15-.37-.21a.48.48,0,0,0-.59.21C36.16,3.09,36,3,36,3a.45.45,0,0,0-.24-.5c-.32-.15-.72.09-.95.3s-.32-.26-.38-.68-.4-.45-.47-.1a1.7,1.7,0,0,1-.67.86c-.19.14-.5-.13-.74-.38s-.41-.17-.55,0-.18.34-.39.07-.39-.15-.92-.07A2.65,2.65,0,0,0,29,3.78c-.19.56-1.31,1.33-1.55,1.61s-.27-.17-.34-.78a2.11,2.11,0,0,0-.77-1.21c-.24-.22-.26.28-.53.36s0-.39-.12-.57-.51.14-.63,0-.32-.53-.17-.74a.64.64,0,0,0,0-.69c-.11-.23-.75,0-1,0s-.62-.23-.89.07-.07.94-.07.94-.67,0-.88.32-.43.11-.43.11c.14-.27,0-.5-.16-.81s-.68-.17-.83-.15-.27-.2-.5-.41-.23-.54-.83-.69-.69.31-.78.5-.25.41-.63-.16-.7-.44-1-.63-.41.28-.51.7-.75.46-1,.42a.69.69,0,0,0-.86.31c-.36.48-.14.78-.18,1.07s-.31.48-.54.29-.3,0-.35.14-.19.37-.26.59.11.41.46.92S13.32,6.4,13,6.53s-.5-.55-.48-.81-.15-.33-.24-.16a3.28,3.28,0,0,0-.53,1.18,14.58,14.58,0,0,1-1.4,2.93c-.23.28-.72.18-1,.16s-.25.34-.31.75-.57,1-.7.95-.17-.41-.5-.2-.39,1.73-.18,2a.42.42,0,0,1,0,.58,3.1,3.1,0,0,1-.84.58c-.23.1-.83,0-.75.18a2.94,2.94,0,0,0,.75.72c.48.38.45.89.23,1s-.56-.35-.9-.64-.38-.23-.42.18.84.92.84.92a6,6,0,0,0-.25,1c-.1.69-.23,1.07-.55,1.07s-.78-.52-1-.11.2,1.33.26,1.77-.26.36-.67-.08-.75-.34-.8-.1.71.69.67,1.26.77.47,1,.67.44-.15.8-.16.19,1.19.2,1.46-.64-.33-.83-.22.34.92.13,1.1-.12.65-.22,1-.49-.45-.62-.66-.33-.67-.47-.35.37,1.32.1,1.05c-.62-.73-1.27-.77-1.35-.7s.28,1,.16,1.24-.22-.09-.75.09-.24,1.89-.24,1.89-.53,0-.26.49a7.91,7.91,0,0,0,1.25,1.3c.13.13-.33,0-.5,0s-.6-.1-.22.35A11.17,11.17,0,0,0,5,31.42c.78.47.89,1.18,1.39.83s.5,0,.5,0-.51.36-.5.63.52.63.87,1,.42.54-.12,1.09S8,36.52,8,36.52s-.93,0-1,.14,0,.58.58.92,2.22.8,2.27,1-.54.08-.54.08c.35.46.55.72,2.18.67a5.46,5.46,0,0,0,2.82-.79c.17-.13.19-.45.7-.19s2.05.8,2.52.54.33-.63.55-.84.68.34,1.29,1.1a16.85,16.85,0,0,1,2,4.22,10.32,10.32,0,0,0,2,3.41A3.75,3.75,0,0,1,24,48.13s-1.62,0-3.56,0-6.72.51-7.68.56-4.22,0-5.25,0-5.65.21-6.18.36-1.85,1.1-1.09,1.1h67.5c-.41-.65-1.41-.68-2.31-.79s-4.56.13-6.17-.16-4-.12-4.07-.22.47-2.07.68-3a10.38,10.38,0,0,1,.91-3.12c.46-.59.85-.22,1.73-1.11a9.22,9.22,0,0,0,1.64-2.27c.19-.38,1.33-.75,1.59-.49s.33.24.38.07a13.61,13.61,0,0,0,.15-1.51,2.13,2.13,0,0,1,.63-1.33c.48-.59,2.15-1.26,2.31-.72s.56.21.65.36c.63,1,2.16.76,2.32.18a3.59,3.59,0,0,0,2.36.37,2.83,2.83,0,0,0,1.89-1.87c.2-.52.52,0,.79.25s.44.11.49-.59.31-.69.48-.71a2.08,2.08,0,0,0,1.6-1c.37-.84-.21-.92-.58-.91M29,34.62c.23-.26,0-.81.21-1.28s.74-.18.74-.18c.37.08.24.36.59.35s.81-1,1.5.08-.67,1.25-1.26,1.27-.8.84-1.41.81-.6-.78-.37-1.05M20.13,23a7.72,7.72,0,0,0,.34-2.4c-.09-.43-.15-.64-.15-.64s.15.53.49.64.64.26.63.54c0,.06-.86.27-.42.7s.53.56.27.76-.53.91-.27,1.17.43.15.42.59-.26.54-.64,1.08A2.64,2.64,0,0,1,20.13,23M18,20.87c.38.14.46,1,.87.67s1,0,.66.42a1.58,1.58,0,0,0-.32,1.22A2.13,2.13,0,0,0,18,21.73c-.94-.32-.38-1,0-.86m-2.52,1.18v1.67l-.59-.83c.51.22.59-.84.59-.84m-2,1.83c.69-.53.34.55.75.59s.59-.64,1.12.33A2.65,2.65,0,0,1,15.23,27a7.21,7.21,0,0,0-.86-.93,7.36,7.36,0,0,1-1-1,.82.82,0,0,1,.09-1.17m-.09,4.36c0-.17.35-.49,0-.84a.55.55,0,0,0-.89.17c0,.22-.37,0-.37-.34s.38-.47.12-.67-.38.3-.62-.08-.44-.72-.09-.67c0,0,4.57.29,4.53,5.61,0,0-.83,0-.92-.4a8.78,8.78,0,0,0-.29-1.44c-.23-.7-.39-1.08-.66-.93s-.83-.25-.79-.41m3.87,7.53A2.81,2.81,0,0,0,15.8,36c-.69.2-.69-.48-.45-.59s.1-.32-.25-.54-1-.57-1-1.09.5-.46,1.07-.52c.79-.09,1.31.57,1.76,1.11s.59,1.5.29,1.42m1.33-3.47c-.39.66-1.09.3-1-.13s-.16-.67-.36-.62-.38.14-.89-2.48a24,24,0,0,1-.16-5.94c0-.33.33-.35.47-.1s0,.69.36.77.25-.3.76-.08.52-.52.75-.3A2.42,2.42,0,0,1,19,25.05c-.07.63-.53.29-.76.59s.35,1.19,1,2.63-.28,3.36-.66,4m1,.79a7.8,7.8,0,0,1,1.26-4.27c.25-.21.65.18.36.76s-.12.86.11,1a.65.65,0,0,1-.08,1.14c-.68.31-1-.1-1.06.53s-.45,1.32-.59.84m6.64,10.65a6.34,6.34,0,0,0-.42,2.57s-.87-.15-1.85-1.86a42.18,42.18,0,0,1-2.13-5.27c-.52-1.3-1.56-3.5-1.56-3.5a1.24,1.24,0,0,1,.6-.11c.33,0,1.1.16,1.25,0s-.32-.28-.39-.51-.28-.94,0-1.08.32.4.57.42a.89.89,0,0,1,.77.35c.26.33.5.72.93.69s1,0,1,.21.11.93-.2,1.06-.32.41,0,.53A2.19,2.19,0,0,1,26.41,39a11.32,11.32,0,0,1-.24,4.76m1.51-8.47a9.59,9.59,0,0,0-1.85-.92,3.33,3.33,0,0,0-1.32-.05c-.49,0-.08-.68.15-.79a.48.48,0,0,0,0-.79c-.32-.22-.61.38-.84.29s.1-.61.43-.76.38-.41.56-.74-.26-.11-.44-.09-.51-.12-.55-.34.13-.25.13-.25.3.08.35-.09-.1-.58-.1-.58c0-.36.57-.28,1.39-.23s1.23,1.41,1.46,1.65-.34.37-.5.67.09.29.44.25.37.38.4.59-.21.62,0,.63.39.14.46.46a3,3,0,0,1-.19,1.09m8.43,7.65c-.86,2.39-.57,2.56-1.26,3.95s-2.21,1.2-3,1.25-3.24,0-3.24,0l0-1s0-2.12,0-3.73A21.72,21.72,0,0,1,29,40c.09-.63-.18-.7-.2-1a2.89,2.89,0,0,1,.49-1.13c.21-.43-.18-.4-.46-.14s-.33.22-.41-.14a.61.61,0,0,1,.57-.77,7.24,7.24,0,0,0,1.93-.18c.58-.17.65-.56.92-.74s.45.26.48.49-.47.21-.54.32.07.37.5.49.41-.1.91,0,.37.85.3,1.09c-.23.71,0,.77.11.79s.23-.27.68-.38,1.15-.59,1.6-.75.59-.57.75-.41c.54,1.25.33,3-.54,5.39M39,45.31c0-.21.22-2.74.17-2.93s-.21-.26-.34-.16-.22.39-.37.61-.57.43-.57-.83a10.17,10.17,0,0,1,.47-2.22,3.14,3.14,0,0,1,1.73-2.06,4.44,4.44,0,0,0,.92-.87c.31.11.39.47.42.9A16.09,16.09,0,0,1,41.12,41a11.09,11.09,0,0,1-1.31,3.51c-.25.47-.78,1.05-.81.84m11.1,2.47c-.12.9-.84.82-1.6.64A17.48,17.48,0,0,0,45.34,48c-1.72-.12-5.25.12-5.25.12s.06-.48.12-.81a16.41,16.41,0,0,1,1.24-3.84c.84-1.77,2-5.2,2-5.2a10.77,10.77,0,0,1,3.24,1.1,6,6,0,0,1,3.07,3.45,9.78,9.78,0,0,1,.35,5m1.06-7c-1,0-1.76-2.26-1.76-2.26,2.4.57,1.76,2.26,1.76,2.26m.75.75-.17-2a1.53,1.53,0,0,1,.17,2m1.78,5.76A4,4,0,0,0,52.87,49c-.39-.45-.42-1.22,0-2.3a7.64,7.64,0,0,1,1.55-2.56,1.53,1.53,0,0,1,.28,1,3.91,3.91,0,0,1-1,2.23m1.05-5.69a14.08,14.08,0,0,1-1.66,2.22c-.85.64-1.11.74-.26-.56a8.91,8.91,0,0,0,1-2.48c.13-.61-.2-1.47.14-1.8,0,0,.91-.91,1.5-.22s-.2,2.12-.77,2.84M57.45,41a5.06,5.06,0,0,1,.27-.53c.15-.24.68-.9.68-.9A1.15,1.15,0,0,1,57.45,41m3.43-4c-.17.74-.74.56-.74.56-.31-.13-.2-.4-.38-.47s-.6-.17-.56-.87,1-.94,1.68-.87.17.91,0,1.65"/></g></g></svg>