<svg xmlns="http://www.w3.org/2000/svg" viewBox="0 0 63.22 36.08"><defs><style>.cls-1{fill:#231f20;}</style></defs><title>icon-bicycle</title><g id="Layer_2" data-name="Layer 2"><g id="Layer_1-2" data-name="Layer 1"><path class="cls-1" d="M50.53,10.72a12.63,12.63,0,0,0-7.32,2.33L40.32,9.38l2-6.4a6.53,6.53,0,0,0,.9.19c4.08.42,3.54-2.32,3.54-2.32-.18-1-1.6-.69-1.6-.69l-.39.1A19.15,19.15,0,0,1,41,.83,16.35,16.35,0,0,0,38.51,1a3.73,3.73,0,0,0-.93.3c-.31.15-.64.41-.59.74a.61.61,0,0,0,.58.45,2.39,2.39,0,0,0,.79-.14,4.75,4.75,0,0,1,2.88.32l-2,6.16-18-4L22.43.76H18.12A.76.76,0,0,0,17.73.6,10,10,0,0,0,13,1.1a.33.33,0,0,0-.14,0c-.85-.1-1-.6-1-.66a.48.48,0,0,0-.52-.4.51.51,0,0,0-.24.1L11,.16A2.81,2.81,0,0,0,9.81,3a2.48,2.48,0,0,1-.45,1.93s1.09.25.88-2a1.92,1.92,0,0,1,1-1.79l.09.12a5.6,5.6,0,0,0,.15,1.19,2.81,2.81,0,0,0-.33,1.48c.07,2.8,2.76,3.72,4.43,3.84a16.75,16.75,0,0,0,3.12,1.55l-.75,2.53a12.76,12.76,0,1,0,1.06.55l.64-2.19L32,21.86A3.49,3.49,0,0,0,34.56,27v.12a2.74,2.74,0,0,1-.5-.08l-.05.23a4.89,4.89,0,0,0,.53.09l-.17,3.26-1.48.25a.43.43,0,0,0-.34.49l0,.21a.41.41,0,0,0,.48.34l3.54-.59a.43.43,0,0,0,.34-.49l0-.21a.41.41,0,0,0-.48-.34L35,30.51,35.18,27a3.47,3.47,0,0,0,2.35-1,3,3,0,0,0,.48-.6,13.48,13.48,0,0,0,.32,1.46h0l0,.23h.1A12.68,12.68,0,1,0,50.53,10.72ZM20.91,5.94l18,4-3.19,9.86h-.06l0,.23h0l0,.1a3.68,3.68,0,0,0-.58-.05,3.62,3.62,0,0,0-1.76.48l-.16-.15a4.12,4.12,0,0,1,.69-.27l-.06-.23a5.73,5.73,0,0,0-.81.33l-12.73-12Zm28.21,6.94.78,8h-.13L46.46,13.6A10.78,10.78,0,0,1,49.12,12.88Zm12,10.51a9.44,9.44,0,0,1-.07,1.2l-8-.78a2.64,2.64,0,0,0,0-.28,1.72,1.72,0,0,0,0-.39l-.23,0a2.07,2.07,0,0,1,0,.35,2.26,2.26,0,0,1,0,.26l-.13,0a1.94,1.94,0,0,0,0-.24,1.68,1.68,0,0,0-.06-.45l8.39-.82A10.55,10.55,0,0,1,61.15,23.39Zm-9.37,2.1-.38.2-.12-.26a2,2,0,0,0,.63-.28L56.8,32a10.68,10.68,0,0,1-2,1.16L51.49,25.9a2.41,2.41,0,0,0,.42-.22Zm-.69.08.09.2-.07,0Zm-1.19.36h-.13l.17-.37Zm-.24.25.22,0-.76,7.76a10.19,10.19,0,0,1-2.64-.71Zm-3.4,6.94a10.87,10.87,0,0,1-2-1.17l4-5.66.81-.07,0-.23-.61.05.86-1.21a1.92,1.92,0,0,0,.5.4Zm-3.4-6.62-.35,0v.13l-1.79.81c-.08-.18-.14-.36-.21-.54h.13l0-.23h-.19A10.57,10.57,0,0,1,40,24.82l4-.39h3.41ZM37,23.26A2,2,0,0,0,36.25,22l.34-1.05a3.07,3.07,0,0,1,1.3,1.54c0,.26,0,.53,0,.79Zm-1.94-1.68a2,2,0,0,0-.55.08l-.85-.8a3,3,0,0,1,1.83-.32l-.34,1Zm14.88-.31-.06-.13h0Zm2.34.73a2.52,2.52,0,0,1,.39.59l-.13.06a1.84,1.84,0,0,0-.41-.55ZM40.36,20.37l.47,0,0-.23-.42,0c.09-.26.18-.51.28-.76l2.12,1h-.1l0,.23.74.06,4.92,2.23L40,22A11.37,11.37,0,0,1,40.36,20.37Zm3.78.31.92.07,0-.23-.94-.08,0,.23-.46-.21V20.4h-.16l-2.7-1.23a10.68,10.68,0,0,1,1.16-2l5,3.57v.19l.31,0L48.74,22l.32.41a1.77,1.77,0,0,0-.21.41Zm3.74.22.34.44L47.7,21l.18,0Zm4.18.59a2.41,2.41,0,0,0-.65-.35l3.38-7.46a10.5,10.5,0,0,1,2,1.17Zm-1-.22.82-8.39a10.31,10.31,0,0,1,2.67.71Zm.22.08a2.25,2.25,0,0,1,.61.33l-.12.17a1.88,1.88,0,0,0-.61-.23Zm-3.56-.62-.41,0L42.11,17a10.27,10.27,0,0,1,1.46-1.56ZM40,22.26l8.79.86a.78.78,0,0,0,0,.14H39.93A8.26,8.26,0,0,1,40,22.26Zm1.63,2.17L40,24.59c0-.06,0-.11,0-.16Zm10.58.72L52.09,25h0l.15.11ZM52.7,24l.13,0v.05L52.7,24Zm.34.13a.29.29,0,0,0,0-.09l8,.78a10.34,10.34,0,0,1-.71,2.66l-7.52-3.41Zm-.38-1.28,7.69-3.49A10.34,10.34,0,0,1,61.06,22Zm7.6-3.7-7.37,3.34a2.88,2.88,0,0,0-.42-.63l6.62-4.74A10.5,10.5,0,0,1,60.26,19.15Zm-8.17,2.7L57,15a10.59,10.59,0,0,1,2,2Zm-.41-9-.85,8.73h0a2,2,0,0,0-.44.05l-.16,0-.05-.49.22,0,.31,0,0-.23a1.83,1.83,0,0,0-.33,0l-.25,0-.79-8.07a9.12,9.12,0,0,1,1.18-.07A10.93,10.93,0,0,1,51.68,12.85Zm-2,8.51-5.23-6.68a10.78,10.78,0,0,1,1.76-1ZM38,21.62a3.6,3.6,0,0,0-1.24-1.15l3.15-9.76,2.4,3.06A12.67,12.67,0,0,0,38,21.62Zm2.84,6.06,2.1-1,.55,0,0-.2L48,24.43h1.07a.64.64,0,0,1,.08.14l-2.23,1.6h-.17v.1L42,29.69A10.87,10.87,0,0,1,40.82,27.68ZM47,26.4l.71-.06,0-.23-.32,0L48.94,25l-.76,1.07h0v0l-4.09,5.71a11,11,0,0,1-1.93-1.93ZM49.35,34l.77-7.81.26,0h.13v-.24h-.12l-.24,0,0-.52a2.06,2.06,0,0,0,.62.1h0L51.68,34c-.37,0-.75.06-1.13.07A11.73,11.73,0,0,1,49.35,34ZM51.13,26l.14,0,3.29,7.25a10.55,10.55,0,0,1-2.65.7ZM57,31.83l-4.64-6.49.09-.1,6.5,4.66A10.8,10.8,0,0,1,57,31.83Zm-4.4-6.76a2.41,2.41,0,0,0,.3-.48l-.21-.1a2.52,2.52,0,0,1-.28.44l-.13-.09a2.07,2.07,0,0,0,.37-.6l7.62,3.45a10.68,10.68,0,0,1-1.18,2ZM11.44,1.41a2.12,2.12,0,0,0,.54.37,3.12,3.12,0,0,0-.43.53A5.5,5.5,0,0,1,11.44,1.41ZM15.81,7.8h.1a.82.82,0,0,0,0-1.63c-.13,0-3.1-.09-3.16-2.28a1.16,1.16,0,0,1,.38-1c1-.9,3.55-.81,4.37-.71a.8.8,0,0,0,.73-.29h2.62l-2.15,7.3A17.25,17.25,0,0,1,15.81,7.8Zm5.28,9.14-4.74,3.39a15.55,15.55,0,0,0,1.08-2.6l.17-.59L19.15,15A10.54,10.54,0,0,1,21.09,16.94Zm2.2,6.45a11.76,11.76,0,0,1-.06,1.2l-8.8-.86a1.84,1.84,0,0,0,0-.33,2.46,2.46,0,0,0,0-.28l8.79-.86A10.55,10.55,0,0,1,23.29,23.39Zm-.09,1.43a10.78,10.78,0,0,1-.72,2.66L14.81,24ZM8.4,33.12a10.87,10.87,0,0,1-2-1.17l5.15-7.18a1.63,1.63,0,0,0,.51.3Zm3.68-7.55-.82,8.35a10.19,10.19,0,0,1-2.64-.71Zm-9.95-1a11.51,11.51,0,0,1-.06-1.18,10.93,10.93,0,0,1,.06-1.15l8.79.86a1.32,1.32,0,0,0,0,.28,1.66,1.66,0,0,0,0,.32ZM10.51,24,2.87,27.46a10.61,10.61,0,0,1-.71-2.64ZM2.16,22a10.15,10.15,0,0,1,.7-2.65l7.65,3.47Zm9.36,0L6.37,14.87a11,11,0,0,1,2-1.18l3.65,8A1.71,1.71,0,0,0,11.52,22.05Zm2.28,2.74L18.94,32a10.37,10.37,0,0,1-2,1.16l-3.65-8A1.86,1.86,0,0,0,13.8,24.79Zm1-1.94,7.69-3.49A10.74,10.74,0,0,1,23.2,22Zm1.5-5.45a15.48,15.48,0,0,1-1.33,3l-1.06,1.48L13.8,22a1.48,1.48,0,0,0-.52-.29l3.65-8,.42.19Zm-3.08,3.87.83-8.39a10.34,10.34,0,0,1,2.66.71Zm.6-8.42L13,21.64l-.28,0a1.84,1.84,0,0,0-.33,0l-.86-8.79a9.23,9.23,0,0,1,1.18-.07A11.12,11.12,0,0,1,13.83,12.85Zm-1.75,8.42L8.6,13.6a10.78,10.78,0,0,1,2.66-.72ZM6.19,15l4.89,6.84L4.25,17A10.54,10.54,0,0,1,6.19,15Zm5.1,7.27a1.83,1.83,0,0,0-.29.53L3,19.16a10.68,10.68,0,0,1,1.16-2ZM3,27.68,11,24a1.81,1.81,0,0,0,.3.52L4.13,29.69A10.87,10.87,0,0,1,3,27.68ZM11.08,25,6.21,31.81a10.74,10.74,0,0,1-1.94-1.93Zm.41,9,.87-8.79.32,0a1.27,1.27,0,0,0,.28,0L13.82,34c-.37,0-.75.06-1.13.07S11.89,34,11.49,34Zm1.74-8.38,3.47,7.66a10.55,10.55,0,0,1-2.65.7Zm5.9,6.26L14.23,25l6.84,4.9A10.74,10.74,0,0,1,19.13,31.83ZM14,24.57a1.76,1.76,0,0,0,.31-.53l8.05,3.65a10.17,10.17,0,0,1-1.18,2Zm8.37-5.42-7.53,3.42a11.4,11.4,0,0,0,1.22-1.77l5.14-3.68A10.5,10.5,0,0,1,22.4,19.15Zm-4.6-2.69.59-2a5.72,5.72,0,0,1,.57.39ZM32,23.54a3,3,0,0,1,.31-1.35l.84.79a2,2,0,0,0-.08.56,2,2,0,0,0,1.54,1.9l-.06,1.08A3,3,0,0,1,32,23.54Zm5.16,2.13a3,3,0,0,1-2,.89l.06-1.08a2,2,0,0,0,1.54-1.05h1.1a.57.57,0,0,0,0,.13A3.05,3.05,0,0,1,37.2,25.67Z"/><rect class="cls-1" x="35.47" y="27.06" width="0.94" height="0.23" transform="translate(-2.07 2.98) rotate(-4.62)"/><path class="cls-1" d="M33.62,26.9a3.66,3.66,0,0,1-.82-.4l-.12.2a3.88,3.88,0,0,0,.87.42Z"/><path class="cls-1" d="M31.15,23.54A2.75,2.75,0,0,1,31.2,23l-.23,0a3.14,3.14,0,0,0,0,.61c0,.12,0,.24,0,.36l.24,0A1.94,1.94,0,0,1,31.15,23.54Z"/><path class="cls-1" d="M31.68,21.7l-.2-.12a3.67,3.67,0,0,0-.4.88l.22.07A3.66,3.66,0,0,1,31.68,21.7Z"/><path class="cls-1" d="M35,19.93l.23,0,0-.23-.25,0a4.37,4.37,0,0,0-.72.06l0,.23A5.05,5.05,0,0,1,35,19.93Z"/><path class="cls-1" d="M31.81,25.56l-.19.14a3.74,3.74,0,0,0,.67.71l.14-.18A3.94,3.94,0,0,1,31.81,25.56Z"/><path class="cls-1" d="M31,24.38a3.7,3.7,0,0,0,.34.91l.21-.11a3.4,3.4,0,0,1-.33-.85Z"/><rect class="cls-1" x="43.93" y="26.37" width="0.94" height="0.23" transform="translate(-1.98 3.65) rotate(-4.6)"/><rect class="cls-1" x="36.88" y="26.94" width="0.94" height="0.23" transform="matrix(1, -0.08, 0.08, 1, -2.06, 3.1)"/><rect class="cls-1" x="37.43" y="19.56" width="0.23" height="0.94" transform="translate(14.56 55.84) rotate(-85.38)"/><rect class="cls-1" x="45.34" y="26.26" width="0.94" height="0.23" transform="matrix(1, -0.08, 0.08, 1, -1.97, 3.76)"/><rect class="cls-1" x="41.11" y="26.6" width="0.94" height="0.23" transform="translate(-2.01 3.42) rotate(-4.6)"/><rect class="cls-1" x="41.66" y="19.9" width="0.23" height="0.94" transform="translate(18.11 60.37) rotate(-85.38)"/><rect class="cls-1" x="45.89" y="20.24" width="0.23" height="0.94" transform="translate(21.68 64.91) rotate(-85.4)"/></g></g></svg>