<svg xmlns="http://www.w3.org/2000/svg" viewBox="0 0 278.79 130.84"><defs><style>.cls-1{fill:#20272e;}.cls-2{fill:#b33625;}.cls-3{fill:#9eb95b;}</style></defs><title>union-park-logo-reg</title><g id="Layer_2" data-name="Layer 2"><g id="Layer_2-2" data-name="Layer 2"><path class="cls-1" d="M38.42,70.89c-3.38.22-4.67,1-5,3.31a89.52,89.52,0,0,0-.28,9.12V88c0,6.63-1,11.41-4.28,14.85a13.82,13.82,0,0,1-10.07,3.88,14.71,14.71,0,0,1-9-2.7c-3.37-2.59-4.95-6.81-4.95-13.39V76.57c0-5.07-.45-5.29-4.89-5.68V69.31H14.57v1.58c-4.45.28-4.9.61-4.9,5.68V89.39c0,9.06,3.61,14.23,10.58,14.23,8.1,0,10.63-6.75,10.63-16V83.32A73,73,0,0,0,30.49,74c-.34-2.2-1.52-2.87-5.46-3.15V69.31H38.42Z"/><path class="cls-1" d="M68.75,78.66c-2.45.13-3.5.7-3.67,2.62a60.15,60.15,0,0,0-.26,7.35v17.64H63.46L44.82,83.34h-.09v11c0,4,.13,6.13.26,7.4.22,2.23,1.23,2.75,4.21,2.93v1.22H38.83v-1.22c2.53-.13,3.63-.7,3.85-2.84.13-1.36.26-3.46.26-7.49V84.7c0-3.2-.09-3.37-.88-4.42s-1.83-1.45-3.89-1.62V77.43h6.47l18.25,22H63V88.63a62.44,62.44,0,0,0-.31-7.26c-.21-2-1.26-2.54-4.28-2.71V77.43H68.75Z"/><path class="cls-1" d="M73.21,105.87v-1.22c3.59-.26,3.94-.53,3.94-4.25V82.9c0-3.72-.35-4-3.94-4.24V77.43h11.6v1.23c-3.59.26-3.94.52-3.94,4.24v17.5c0,3.77.35,4,3.94,4.25v1.22Z"/><path class="cls-1" d="M118.1,91.3c0,9.45-6.61,15.23-14.61,15.23S89.27,100.36,89.27,92c0-7.88,5.51-15.18,14.7-15.18A14.1,14.1,0,0,1,118.1,91.3m-24.37-.57C93.73,99,98.24,105,104.41,105c4.85,0,9.23-4.07,9.23-12.47,0-9.23-4.81-14.13-10.55-14.13-4.9,0-9.36,4.2-9.36,12.38"/><path class="cls-1" d="M151.09,78.66c-2.45.13-3.5.7-3.68,2.62a62.4,62.4,0,0,0-.26,7.35v17.64H145.8L127.16,83.34h-.09v11c0,4,.13,6.13.26,7.4.22,2.23,1.23,2.75,4.2,2.93v1.22H121.16v-1.22c2.54-.13,3.63-.7,3.85-2.84.13-1.36.27-3.46.27-7.49V84.7c0-3.2-.09-3.37-.88-4.42s-1.84-1.45-3.89-1.62V77.43H127l18.25,22h.13V88.63a64.94,64.94,0,0,0-.31-7.26c-.22-2-1.27-2.54-4.29-2.71V77.43h10.33Z"/><path class="cls-1" d="M171.24,69.31c4,0,7.2.68,9.45,2.37a9.33,9.33,0,0,1,3.66,7.93c0,7.25-5.51,10.8-11,11.53a21.26,21.26,0,0,1-2.53,0l-4.16-1.07V98.9c0,4.78.5,5.06,5.57,5.4v1.57H157V104.3c4.5-.34,5-.79,5-5.46V76.34c0-5-.45-5.17-4.61-5.45V69.31Zm-4.55,18.9a12.17,12.17,0,0,0,4.1.68c3.66,0,8.16-2,8.16-9.12,0-6.07-3.88-8.66-8.5-8.66a5.23,5.23,0,0,0-3.15.68c-.44.39-.61,1.06-.61,2.64Z"/><path class="cls-1" d="M197.28,105.87v-1.22c2.76-.35,3.15-.7,2.58-2.41s-1.44-4.07-2.4-6.74h-9.32c-.7,2-1.36,3.81-1.93,5.65-1,2.75-.57,3.19,2.72,3.5v1.22h-9.5v-1.22c2.76-.4,3.37-.66,4.9-4.51l9.06-23,1.35-.39c2.72,7.52,5.65,15.84,8.45,23.45,1.4,3.76,2,4.16,4.81,4.42v1.22ZM193,82.46h-.08c-1.4,3.77-2.8,7.57-4.12,11.16h8.05Z"/><path class="cls-1" d="M237.09,106.22c-.52,0-1,0-1.53,0a8,8,0,0,1-7.09-4c-1.53-2.15-3.1-4.86-4.42-7-.74-1.23-1.48-1.75-3.76-1.75h-1.4v7c0,3.72.4,4,3.9,4.25v1.22H211.28v-1.22c3.59-.26,4-.53,4-4.25V82.81c0-3.72-.35-3.85-3.76-4.15V77.43h10.85c3.19,0,5.34.39,7,1.49a6.56,6.56,0,0,1,2.89,5.73c0,3.76-2.32,6.08-5.56,7.48.74,1.45,2.58,4.38,3.9,6.35a38.17,38.17,0,0,0,3.54,4.55,6.3,6.3,0,0,0,3.15,2.06ZM221,92c2.23,0,3.68-.35,4.77-1.22a6.27,6.27,0,0,0,2.41-5.43c0-4.72-3.11-6.47-6.43-6.47a4.25,4.25,0,0,0-2.37.44c-.3.21-.48.74-.48,1.92V92Z"/><path class="cls-1" d="M260.15,105.87c-3.37-3.8-6.91-8.09-10.85-12.73-1-1.18-1.62-1.35-2.36-1.23v8.32c0,3.85.43,4.16,4,4.42v1.22H239.58v-1.22c3.33-.26,3.72-.57,3.72-4.42V83.12c0-4-.39-4.2-3.85-4.46V77.43h11.29v1.23c-3.37.26-3.8.57-3.8,4.46v7.66a7.67,7.67,0,0,0,3.06-2A101.74,101.74,0,0,0,257.35,81c1.27-1.58,1.27-2-.74-2.23l-1-.13V77.43h10.5v1.23c-3.32.3-4.33.74-7.13,3.28-1.66,1.53-4.77,4.64-7.74,7.66,3.32,4.11,8.09,9.53,10.28,11.9s3.19,2.89,5.34,3.15v1.22Z"/><rect class="cls-2" x="17.03" y="126.35" width="27.17" height="1.11"/><rect class="cls-2" x="225.36" y="126.35" width="24.5" height="1.11"/><path class="cls-2" d="M115.75,120.73v.41a4.46,4.46,0,1,1-3.1,0v-.41a5.18,5.18,0,1,0,3.1,0"/><polygon class="cls-2" points="114.25 116.55 115.28 123.62 113.13 123.62 114.25 116.55"/><path class="cls-1" d="M99,128.23v-6.29a.5.5,0,0,0-.24-.47,2.42,2.42,0,0,0-.81-.21c-.11,0-.17-.09-.17-.25a1.29,1.29,0,0,1,0-.24l.77,0,.74,0,.69,0,.71,0a1.29,1.29,0,0,1,0,.24c0,.16-.05.24-.15.25a1.7,1.7,0,0,0-.7.21.5.5,0,0,0-.19.44v8.86l-.11,0h-.11a.36.36,0,0,1-.2-.06.68.68,0,0,1-.21-.21l-6.11-8v7.09a.46.46,0,0,0,.21.42,2.88,2.88,0,0,0,.82.22q.15,0,.15.24a1.29,1.29,0,0,1,0,.24l-.76-.05-.72,0-.71,0-.73.05a1.29,1.29,0,0,1,0-.24c0-.14.05-.22.16-.24a2.35,2.35,0,0,0,.73-.22.47.47,0,0,0,.19-.42v-7.74a.42.42,0,0,0-.17-.36,1.66,1.66,0,0,0-.72-.21c-.11,0-.16-.1-.16-.25a.61.61,0,0,1,0-.14.44.44,0,0,1,0-.1l.57,0,.51,0h.48a3.47,3.47,0,0,1,.58,0,.36.36,0,0,1,.23.15Z"/><path class="cls-1" d="M131.12,126.23H130v3.3a.45.45,0,0,0,.31.46,4.1,4.1,0,0,0,.94.19c.12,0,.18.11.18.26a1.29,1.29,0,0,1,0,.25l-1-.05-1.13,0-.9,0-1,.05a1.29,1.29,0,0,1,0-.24c0-.14.06-.22.17-.24a2.47,2.47,0,0,0,.8-.22.44.44,0,0,0,.24-.43v-7.65a.5.5,0,0,0-.22-.43,2.33,2.33,0,0,0-.85-.22c-.1,0-.15-.09-.15-.25a1.29,1.29,0,0,1,0-.24l.93,0,.92,0h2a3.64,3.64,0,0,1,2.45.72,2.42,2.42,0,0,1,.83,1.93,2.18,2.18,0,0,1-.12.69,2.71,2.71,0,0,1-.34.71,2.91,2.91,0,0,1-1.47,1.11l2.51,3.49a1.58,1.58,0,0,0,.63.54,4.68,4.68,0,0,0,.65.23c.09,0,.14.09.14.21a1.39,1.39,0,0,1,0,.27c-.23,0-.51,0-.85-.05l-.91,0a1,1,0,0,1-.64-.27,3.2,3.2,0,0,1-.61-.69Zm-.31-.62a2.62,2.62,0,0,0,1.62-.44,1.88,1.88,0,0,0,.57-1.56,2.93,2.93,0,0,0-.12-.86,1.77,1.77,0,0,0-.38-.67,1.9,1.9,0,0,0-.69-.46,3,3,0,0,0-1.05-.16H130v4.15Z"/><path class="cls-1" d="M148.72,121.46v8a.51.51,0,0,0,.28.49,3.32,3.32,0,0,0,1,.22c.11,0,.16.08.16.24a1.29,1.29,0,0,1,0,.25l-1-.05-1.08,0-1.07,0-1,.05a1.29,1.29,0,0,1,0-.25q0-.21.15-.24a3.71,3.71,0,0,0,1-.23.47.47,0,0,0,.3-.48v-8h-1.54a2.68,2.68,0,0,0-.76.09,1.52,1.52,0,0,0-.54.27,1.66,1.66,0,0,0-.39.47c-.11.19-.22.41-.34.66a.19.19,0,0,1-.1.1l-.13,0a.5.5,0,0,1-.29-.09c.1-.36.18-.68.23-1s.1-.51.13-.7.09-.33.13-.43a.23.23,0,0,1,.22-.15l.3,0,.41,0,.45,0h5.85l.45,0,.41,0,.31,0a.22.22,0,0,1,.22.16,2,2,0,0,1,.13.44c0,.19.08.43.13.71a5.7,5.7,0,0,0,.23.93l-.14.06a.41.41,0,0,1-.16,0l-.14,0a.17.17,0,0,1-.1-.1,6.75,6.75,0,0,0-.33-.66,1.66,1.66,0,0,0-.39-.47,1.43,1.43,0,0,0-.52-.27,2.78,2.78,0,0,0-.76-.09Z"/><path class="cls-1" d="M163.41,121.46v3.85h2.35a.45.45,0,0,0,.43-.29,3.69,3.69,0,0,0,.2-.72.25.25,0,0,1,.27-.2l.12,0,.12,0c0,.22,0,.47-.05.75s0,.53,0,.74,0,.38,0,.62,0,.53.06.84a.91.91,0,0,1-.23,0,.25.25,0,0,1-.28-.2,3.39,3.39,0,0,0-.2-.71.45.45,0,0,0-.43-.3h-2.35v3.55c0,.22.14.35.41.43a6,6,0,0,0,1.34.1H166a2,2,0,0,0,.76-.13,1.8,1.8,0,0,0,.57-.34,2.51,2.51,0,0,0,.45-.52,5.16,5.16,0,0,0,.37-.66c0-.07.11-.11.23-.11a.27.27,0,0,1,.16,0l.16.09a3.8,3.8,0,0,0-.24.68c-.06.27-.12.52-.19.76a4.75,4.75,0,0,1-.18.62c-.07.17-.15.25-.25.25h-.35l-.49,0-.53,0h-3.76l-.93,0-.95.05a1.29,1.29,0,0,1,0-.24q0-.21.15-.24a3.65,3.65,0,0,0,.82-.22.44.44,0,0,0,.25-.43v-7.65a.43.43,0,0,0-.22-.42,3.86,3.86,0,0,0-.85-.23c-.1,0-.15-.1-.15-.25a.49.49,0,0,1,0-.13.52.52,0,0,1,0-.11l1.08.06h3.75c.45,0,.84,0,1.17,0l.66,0c.13,0,.22.09.27.25a5.27,5.27,0,0,1,.11.59c0,.23.06.48.1.74a1.77,1.77,0,0,0,.23.66.44.44,0,0,1-.27.09.25.25,0,0,1-.26-.13,6.86,6.86,0,0,0-.34-.67,1.61,1.61,0,0,0-.39-.46,1.43,1.43,0,0,0-.52-.27,2.78,2.78,0,0,0-.76-.09Z"/><path class="cls-1" d="M180.84,126.23h-1.11v3.3a.45.45,0,0,0,.31.46,4.1,4.1,0,0,0,.94.19c.12,0,.18.11.18.26a1.29,1.29,0,0,1,0,.25l-1-.05-1.13,0-.9,0-1,.05a1.29,1.29,0,0,1,0-.24c0-.14.06-.22.17-.24a2.47,2.47,0,0,0,.8-.22.44.44,0,0,0,.24-.43v-7.65a.5.5,0,0,0-.22-.43,2.33,2.33,0,0,0-.85-.22c-.1,0-.15-.09-.15-.25a1.29,1.29,0,0,1,0-.24l.93,0,.92,0h2a3.64,3.64,0,0,1,2.45.72,2.42,2.42,0,0,1,.83,1.93,2.18,2.18,0,0,1-.12.69,2.71,2.71,0,0,1-.34.71,2.91,2.91,0,0,1-1.47,1.11l2.51,3.49a1.6,1.6,0,0,0,.64.54,3.83,3.83,0,0,0,.64.23c.09,0,.14.09.14.21a1.39,1.39,0,0,1,0,.27l-.84-.05-.92,0a1,1,0,0,1-.64-.27,3.2,3.2,0,0,1-.61-.69Zm-.31-.62a2.62,2.62,0,0,0,1.62-.44,1.88,1.88,0,0,0,.57-1.56,2.93,2.93,0,0,0-.12-.86,1.77,1.77,0,0,0-.38-.67,1.9,1.9,0,0,0-.69-.46,3,3,0,0,0-1.05-.16h-.75v4.15Z"/><path class="cls-1" d="M197.82,126.23h-1.11v3.3a.45.45,0,0,0,.31.46,4.1,4.1,0,0,0,.94.19c.12,0,.18.11.18.26a1.29,1.29,0,0,1,0,.25l-1-.05-1.13,0-.9,0-1,.05a1.29,1.29,0,0,1,0-.24c0-.14.06-.22.17-.24a2.47,2.47,0,0,0,.8-.22.43.43,0,0,0,.23-.43v-7.65a.49.49,0,0,0-.21-.43,2.33,2.33,0,0,0-.85-.22c-.1,0-.15-.09-.15-.25a1.29,1.29,0,0,1,0-.24l.93,0,.92,0h2a3.64,3.64,0,0,1,2.45.72,2.42,2.42,0,0,1,.83,1.93,2.18,2.18,0,0,1-.12.69,2.71,2.71,0,0,1-.34.71,2.91,2.91,0,0,1-1.47,1.11l2.51,3.49a1.54,1.54,0,0,0,.64.54,3.83,3.83,0,0,0,.64.23c.09,0,.14.09.14.21a1.39,1.39,0,0,1,0,.27l-.85-.05-.91,0a1,1,0,0,1-.64-.27,3.2,3.2,0,0,1-.61-.69Zm-.31-.62a2.62,2.62,0,0,0,1.62-.44,1.88,1.88,0,0,0,.57-1.56,2.93,2.93,0,0,0-.12-.86,1.77,1.77,0,0,0-.38-.67,1.9,1.9,0,0,0-.69-.46,3,3,0,0,0-1-.16h-.75v4.15Z"/><path class="cls-1" d="M216.82,127h-3.36l-1,2.42a.84.84,0,0,0-.08.3c0,.21.31.36.92.45a.22.22,0,0,1,.15.08.41.41,0,0,1,0,.16,1.29,1.29,0,0,1,0,.24l-.85-.05-.89,0h-.62l-.66.06a1,1,0,0,1,0-.24.34.34,0,0,1,0-.18.17.17,0,0,1,.15-.09,2.52,2.52,0,0,0,.71-.19.67.67,0,0,0,.33-.35l3.63-8.72c.07-.18.16-.26.28-.26l.18,0,3.64,9a.75.75,0,0,0,.41.33,3,3,0,0,0,.62.16.37.37,0,0,1,.14.08.31.31,0,0,1,.05.19,1.29,1.29,0,0,1,0,.24l-1-.05-.87,0-1,0-1,.05a1.29,1.29,0,0,1,0-.24.25.25,0,0,1,.06-.19.14.14,0,0,1,.09,0,3.94,3.94,0,0,0,.63-.17c.16-.07.24-.16.24-.3a.82.82,0,0,0,0-.22Zm-.24-.62-1.4-3.68-1.46,3.68Z"/><path class="cls-1" d="M73.33,121.46v8a.51.51,0,0,0,.29.49,3.24,3.24,0,0,0,1,.22c.11,0,.17.08.17.24a1.29,1.29,0,0,1,0,.25l-1-.05-1.07,0-1.08,0-1,.05a1.29,1.29,0,0,1,0-.25q0-.21.15-.24a3.81,3.81,0,0,0,1-.23.48.48,0,0,0,.3-.48v-8H70.37a2.78,2.78,0,0,0-.76.09,1.56,1.56,0,0,0-.53.27,1.66,1.66,0,0,0-.39.47c-.11.19-.23.41-.35.66a.17.17,0,0,1-.1.1.27.27,0,0,1-.12,0,.48.48,0,0,1-.29-.09c.1-.36.18-.68.23-1s.09-.51.13-.7a2,2,0,0,1,.13-.43.22.22,0,0,1,.22-.15l.3,0,.41,0,.45,0h5.85l.45,0,.41,0,.31,0a.23.23,0,0,1,.22.16,2.87,2.87,0,0,1,.12.44c0,.19.09.43.13.71a7.12,7.12,0,0,0,.24.93l-.15.06a.35.35,0,0,1-.16,0l-.13,0a.18.18,0,0,1-.11-.1,6.75,6.75,0,0,0-.33-.66,1.82,1.82,0,0,0-.38-.47,1.47,1.47,0,0,0-.53-.27,2.73,2.73,0,0,0-.76-.09Z"/><path class="cls-1" d="M56.47,127H53.11l-1,2.42a.79.79,0,0,0-.07.3c0,.21.3.36.91.45a.22.22,0,0,1,.15.08.41.41,0,0,1,0,.16,1.29,1.29,0,0,1,0,.24l-.85-.05-.89,0h-.62l-.66.06a1,1,0,0,1,0-.24.34.34,0,0,1,0-.18.18.18,0,0,1,.16-.09A2.53,2.53,0,0,0,51,130a.72.72,0,0,0,.34-.35L55,120.92c.07-.18.17-.26.29-.26l.18,0,3.63,9a.79.79,0,0,0,.41.33,3,3,0,0,0,.62.16.47.47,0,0,1,.14.08.31.31,0,0,1,.05.19,1.29,1.29,0,0,1,0,.24l-1-.05-.87,0-1,0-1,.05a1.29,1.29,0,0,1,0-.24.25.25,0,0,1,.06-.19.14.14,0,0,1,.09,0,4.1,4.1,0,0,0,.64-.17c.15-.07.24-.16.24-.3a.61.61,0,0,0-.06-.22Zm-.24-.62-1.4-3.68-1.46,3.68Z"/><path class="cls-3" d="M154.71,43.24c-.5,0-1.44-.15.09-1.6a3.06,3.06,0,0,0,.49-4c-.58-.67-.86.23-1.39-.11s-.08-1.68-.08-2.42-.87,0-1.7.43a2.94,2.94,0,0,1-2,0,5.33,5.33,0,0,0,1.15-2.84c.19-.55.11-1.25-.43-.69s-1.2-1-1.29-1.57a6.51,6.51,0,0,1-.3-2.15,2.4,2.4,0,0,0-.35-1.93c-.43-.57-.5-.26-.85-.26s-.68-.74-.62-1.89a15.66,15.66,0,0,0-.15-2.42c-.05-.9-.89-.88-1.39-1.37s.17-1.16.24-2.42-1.13-1.08-1-1.9-.73-.73-.73-.73c-.26.73-.44.4-.8.51s-.45-1.46-.27-2.22a1.37,1.37,0,0,0-.89-1.51,1.12,1.12,0,0,1-.46-1.72c.59-.83-.85-.51-1.15-.6s-.65-.57-1-.2-.5.26-1,0a1.28,1.28,0,0,0-1.37.29c-.29.31-1.27-.28-.86-1s0-1.52-.42-1.49-.69-.54-.56-.8.65-.76.16-1.1-1,.1-1.67.18-.68-.86-.73-1.43-.73.22-.83.32-.58,1-1.38.77-.55-1-.45-1.27-.07-.94-.72-.68-.84-.44-.76-.73.86-1.22-.23-1.23-1.9,1.65-2.33,2.17-.54-1-.77-2.17-1.56-1-2-1.32-1.35.36-1,.81,0,.84-.11,1.29,0,.74.26,1.59-.71.77-.86,1.08-.73-.11-.57-1-.41-1-.5-.79-.54.46-.54.1-.39-.37-.73-.32-.13.57-.6.37-.57.57-.69.72-.53.16-.83,0-.32-.36-.09-1a1.59,1.59,0,0,0,.17-1.24c-.13-.54-.77-.76-.75-.23s-1.22.75-1.6,1.18-1.18.5-1.1,0-.44-1-.68-1.17a13,13,0,0,1-1.38-.72c-.6-.45-1.12-.08-1.12.12s0,.54-.53.42a.74.74,0,0,0-.91.35c-.23.3,0,1,0,1.3s-.61.52-.86.72-.71.16-.84.37.12.73.36,1.17a1.63,1.63,0,0,1,.14,1.5c-.26.35-1.17-.17-1.68-.59s-.59.11-.94.24-.25-.5-.2-1-.62-1-1-1-.42-.48-.55-.8-.61.26-.74.66.11,1.18,0,1.4-.44.08-.62-.48-.17-.94-.27-1.3-.41-.2-.51-.28a.67.67,0,0,0-.81.28c-.14.35-.4.17-.4.17a.61.61,0,0,0-.33-.68c-.44-.21-1,.12-1.3.41s-.44-.36-.51-.93-.56-.63-.65-.14a2.36,2.36,0,0,1-.92,1.17c-.27.2-.69-.17-1-.51s-.57-.23-.76,0-.25.46-.53.08-.54-.19-1.26-.08a3.61,3.61,0,0,0-2.25,1.81C91.1,6,89.56,7,89.23,7.39s-.36-.23-.47-1.07a2.79,2.79,0,0,0-1.05-1.65c-.33-.31-.35.38-.72.49s0-.53-.18-.79-.69.2-.86,0-.44-.73-.23-1a.89.89,0,0,0,0-.94c-.15-.33-1,0-1.38,0s-.86-.31-1.23.1S83,3.82,83,3.82s-.92,0-1.21.44-.6.16-.6.16c.2-.37,0-.69-.21-1.12s-.94-.23-1.14-.21-.37-.26-.68-.55-.31-.75-1.14-.95S77.1,2,77,2.27s-.33.56-.86-.22-.95-.59-1.38-.86-.57.39-.7,1-1,.62-1.37.57a.93.93,0,0,0-1.18.43c-.51.66-.2,1.06-.25,1.47s-.43.65-.75.4-.41,0-.47.18-.26.51-.36.81.15.57.64,1.27S69.82,8.78,69.42,9s-.68-.77-.65-1.12-.22-.46-.33-.23a4.53,4.53,0,0,0-.74,1.62,20,20,0,0,1-1.91,4c-.31.38-1,.24-1.35.21s-.34.47-.42,1-.78,1.37-1,1.31-.23-.57-.69-.27-.54,2.36-.25,2.75a.58.58,0,0,1,0,.8,4.3,4.3,0,0,1-1.15.79c-.32.14-1.15,0-1,.25a4.26,4.26,0,0,0,1,1c.65.53.61,1.23.31,1.36s-.76-.48-1.23-.87-.53-.32-.58.24,1.15,1.27,1.15,1.27a8,8,0,0,0-.34,1.44C60.16,25.5,60,26,59.54,26s-1.06-.71-1.38-.14.28,1.82.36,2.42-.37.5-.93-.11-1-.46-1.09-.13,1,1,.92,1.72,1.06.65,1.38.92.6-.2,1.1-.21.27,1.62.28,2S59.3,32,59,32.19s.47,1.26.19,1.5-.17.89-.3,1.37-.68-.61-.85-.9-.45-.92-.65-.48.51,1.8.13,1.45c-.84-1-1.73-1.06-1.84-1s.38,1.34.21,1.7-.3-.12-1,.12-.33,2.6-.33,2.6-.73,0-.36.67A10.57,10.57,0,0,0,55.92,41c.18.18-.46,0-.69,0s-.82-.14-.29.48S58.22,43,58.4,43.1c1.06.64,1.21,1.62,1.9,1.14s.69,0,.69,0-.7.49-.69.87.71.86,1.2,1.32.58.73-.17,1.49,1.15,2.18,1.15,2.18-1.27,0-1.44.18,0,.81.79,1.28,3,1.09,3.12,1.41-.74.11-.74.11c.49.63.75,1,3,.91a7.37,7.37,0,0,0,3.86-1.08c.24-.18.27-.61,1-.26s2.81,1.09,3.45.74.46-.86.77-1.16.92.48,1.76,1.53a22.5,22.5,0,0,1,2.74,5.78,14.31,14.31,0,0,0,2.73,4.68,5.21,5.21,0,0,1,1,1.8s-2.22.07-4.89,0-9.21.7-10.53.76-5.8,0-7.21,0-7.75.3-8.47.5-2.54,1.51-1.5,1.51h92.6c-.56-.89-1.94-.94-3.17-1.08s-6.25.18-8.46-.22-5.5-.17-5.58-.3.64-2.85.93-4.17.61-3.49,1.24-4.29,1.17-.29,2.38-1.52a13,13,0,0,0,2.25-3.11c.25-.52,1.82-1,2.17-.67s.46.33.53.1a19.2,19.2,0,0,0,.21-2.07,2.86,2.86,0,0,1,.86-1.84c.66-.81,2.94-1.72,3.17-1,.28.89.77.28.89.49.87,1.41,3,1.05,3.19.25a4.88,4.88,0,0,0,3.23.5c1.52-.26,2.32-1.84,2.6-2.55s.7-.08,1.07.34.61.14.68-.82.43-.94.67-1a2.82,2.82,0,0,0,2.18-1.41c.51-1.15-.29-1.27-.79-1.25M91.32,47.5c.31-.37,0-1.12.28-1.76s1-.25,1-.25c.5.11.33.49.81.48s1.11-1.39,2,.11-.91,1.71-1.72,1.74-1.1,1.16-1.94,1.11-.82-1.07-.5-1.43M79.17,31.59a10.68,10.68,0,0,0,.46-3.29c-.12-.59-.21-.88-.21-.88s.21.73.68.88.86.36.86.73c0,.09-1.19.37-.57,1s.71.76.36,1-.72,1.25-.36,1.61.58.2.57.8-.36.74-.88,1.5a3.67,3.67,0,0,1-.91-3.36m-2.92-3c.51.19.62,1.34,1.19.92s1.31,0,.9.58a2.15,2.15,0,0,0-.44,1.67,2.94,2.94,0,0,0-1.65-2c-1.29-.44-.52-1.37,0-1.18m-3.47,1.62v2.29L72,31.4c.7.31.81-1.15.81-1.15M70,32.76c1-.73.47.75,1,.81s.81-.88,1.53.45a3.62,3.62,0,0,1-.13,3,9.56,9.56,0,0,0-1.17-1.28,10.52,10.52,0,0,1-1.39-1.38A1.13,1.13,0,0,1,70,32.76m-.13,6c0-.22.48-.66,0-1.14a.75.75,0,0,0-1.22.23c-.07.3-.5-.06-.5-.46s.52-.65.17-.92-.53.4-.86-.12-.61-1-.12-.92c0,0,6.27.41,6.22,7.7,0,0-1.15,0-1.27-.54a11.26,11.26,0,0,0-.4-2c-.32-1-.54-1.48-.9-1.26s-1.14-.35-1.09-.58m5.31,10.34a3.94,3.94,0,0,0-2,.28c-1,.28-1-.65-.61-.8s.14-.45-.35-.75S70.87,47,70.9,46.31s.68-.62,1.47-.71c1.08-.13,1.8.79,2.42,1.51s.81,2.07.39,2M77,44.31c-.53.91-1.49.41-1.42-.18s-.21-.92-.49-.85-.52.19-1.22-3.4a32.55,32.55,0,0,1-.23-8.15c0-.46.46-.49.66-.14s0,.94.49,1.06.33-.42,1-.12.71-.7,1-.41a3.37,3.37,0,0,1,.69,2.25c-.08.86-.72.39-1,.8s.48,1.64,1.4,3.61-.39,4.61-.92,5.53m1.34,1.08a10.62,10.62,0,0,1,1.73-5.85c.34-.29.89.24.5,1s-.17,1.19.15,1.38a.89.89,0,0,1-.12,1.56c-.93.43-1.32-.14-1.45.73s-.61,1.82-.81,1.15M87.44,60a8.87,8.87,0,0,0-.57,3.53s-1.2-.21-2.53-2.55a57,57,0,0,1-2.93-7.24C80.7,52,79.28,49,79.28,49a1.73,1.73,0,0,1,.82-.16c.45,0,1.5.22,1.71-.07s-.43-.37-.54-.69-.38-1.3.08-1.49.44.56.77.57a1.29,1.29,0,0,1,1.07.5c.34.45.68,1,1.27.94s1.33,0,1.43.29.14,1.28-.28,1.44-.44.57,0,.74a3,3,0,0,1,2.14,2.46A15.45,15.45,0,0,1,87.44,60m2.08-11.62A13.67,13.67,0,0,0,87,47.11a4.88,4.88,0,0,0-1.81-.06c-.68,0-.11-.93.21-1.08a.66.66,0,0,0,.05-1.09c-.44-.3-.83.53-1.15.4s.13-.83.58-1,.53-.56.78-1-.36-.15-.61-.12-.7-.16-.75-.46.18-.35.18-.35c.09.17.4.11.48-.11a1.84,1.84,0,0,0-.14-.8c0-.5.78-.4,1.9-.32s1.7,1.93,2,2.27-.47.49-.69.91.13.41.61.35.5.52.55.8-.29.85,0,.86.53.19.63.64a4.23,4.23,0,0,1-.26,1.49m11.57,10.5c-1.19,3.28-.79,3.51-1.73,5.42s-3,1.64-4.14,1.72-4.44-.08-4.44-.08l0-1.42s0-2.91,0-5.12a30.19,30.19,0,0,1,.56-4.49c.12-.85-.25-.95-.28-1.42s.38-1,.67-1.55-.24-.55-.63-.2-.45.31-.56-.18a.86.86,0,0,1,.79-1.07A9.24,9.24,0,0,0,94,50.25c.8-.23.9-.76,1.26-1s.62.36.66.66-.64.3-.74.44.1.51.68.68.57-.14,1.26,0,.51,1.16.4,1.49c-.31,1,0,1.06.15,1.09s.32-.38,1-.52,1.57-.82,2.18-1,.81-.78,1-.57c.74,1.72.45,4.11-.74,7.4m4,3.27c0-.28.31-3.75.23-4s-.29-.36-.47-.22-.29.54-.5.83-.78.59-.78-1.14a14.41,14.41,0,0,1,.64-3,4.33,4.33,0,0,1,2.37-2.84,6.55,6.55,0,0,0,1.27-1.18c.42.15.54.63.57,1.23a21.65,21.65,0,0,1-.42,4.39A15.59,15.59,0,0,1,106.17,61c-.36.65-1.08,1.43-1.12,1.14m15.22,3.4c-.16,1.23-1.15,1.13-2.19.88a23,23,0,0,0-4.33-.57c-2.36-.16-7.21.17-7.21.17s.08-.66.16-1.11a22.42,22.42,0,0,1,1.72-5.28c1.15-2.42,2.72-7.13,2.72-7.13A14.88,14.88,0,0,1,115.59,54a8.19,8.19,0,0,1,4.2,4.73,13.27,13.27,0,0,1,.48,6.79m1.46-9.6c-1.4-.05-2.42-3.1-2.42-3.1,3.3.79,2.42,3.1,2.42,3.1m1,1-.23-2.76a2.11,2.11,0,0,1,.23,2.76m2.45,7.9a5.39,5.39,0,0,0-1.14,2.26c-.53-.61-.57-1.67,0-3.16a10.37,10.37,0,0,1,2.12-3.5,2.08,2.08,0,0,1,.39,1.34,5.41,5.41,0,0,1-1.35,3.06m1.43-7.81c-.79,1-1.48,2.46-2.27,3.05-1.18.88-1.53,1-.36-.78a12.28,12.28,0,0,0,1.44-3.4c.17-.83-.27-2,.19-2.46,0,0,1.25-1.25,2-.31s-.27,2.91-1,3.9m3.72-.9a5.5,5.5,0,0,1,.37-.71c.2-.34.94-1.24.94-1.24a1.57,1.57,0,0,1-1.31,2m4.71-5.53c-.23,1-1,.76-1,.76-.43-.17-.28-.55-.53-.64a1,1,0,0,1-.76-1.19c.05-1,1.38-1.29,2.31-1.19s.22,1.25,0,2.26"/><path class="cls-1" d="M273.64,72.82a5.36,5.36,0,0,1,2.54.67,4.71,4.71,0,0,1,1.92,1.91,5.22,5.22,0,0,1,0,5.15,4.81,4.81,0,0,1-1.91,1.91,5.2,5.2,0,0,1-5.14,0,4.87,4.87,0,0,1-1.91-1.91,5.18,5.18,0,0,1,0-5.15,4.79,4.79,0,0,1,1.93-1.91A5.36,5.36,0,0,1,273.64,72.82Zm0,.86a4.28,4.28,0,0,0-2.11.56,4,4,0,0,0-1.62,1.59,4.43,4.43,0,0,0-.58,2.16,4.31,4.31,0,0,0,.57,2.13,4.08,4.08,0,0,0,1.6,1.59,4.3,4.3,0,0,0,4.28,0,4.05,4.05,0,0,0,1.59-1.59,4.29,4.29,0,0,0,0-4.29,3.91,3.91,0,0,0-1.61-1.59A4.3,4.3,0,0,0,273.64,73.68Zm-2.26,7.16V75.28h1.9a4.69,4.69,0,0,1,1.42.16,1.38,1.38,0,0,1,.7.54,1.42,1.42,0,0,1,.26.81,1.49,1.49,0,0,1-.44,1.06,1.68,1.68,0,0,1-1.15.5,1.52,1.52,0,0,1,.47.3,5.73,5.73,0,0,1,.82,1.1l.68,1.09H275l-.5-.88a4.39,4.39,0,0,0-.93-1.29,1.16,1.16,0,0,0-.72-.19h-.53v2.36Zm.89-3.13h1.09a1.78,1.78,0,0,0,1.06-.23.79.79,0,0,0,.15-1.06.86.86,0,0,0-.38-.29,3,3,0,0,0-.9-.09h-1Z"/></g></g></svg>