<svg xmlns="http://www.w3.org/2000/svg" viewBox="0 0 631.75 631.75"><defs><style>.cls-1{fill:#29a9aa;}</style></defs><title>upan-pattern-teal</title><g id="Layer_2" data-name="Layer 2"><g id="Line_Pattern" data-name="Line Pattern"><path class="cls-1" d="M34.18,44.79a48.33,48.33,0,0,1,0,68.36,62.93,62.93,0,0,0-18.55,44.79h0A62.9,62.9,0,0,0,32,200.44c.71.77,1.43,1.54,2.18,2.28a48,48,0,0,1,14.16,34.19,48,48,0,0,1-14.16,34.18A48,48,0,0,1,0,285.24v15H0a62.92,62.92,0,0,0,44.79-18.56,48.36,48.36,0,0,1,68.36,0c.58.59,1.15,1.18,1.7,1.79l.23.27c.47.53.94,1.06,1.38,1.61l0,.05a48.41,48.41,0,0,1,.08,60.82,1.09,1.09,0,0,1-.13.17c-.4.49-.81,1-1.23,1.44-.13.14-.25.3-.38.44-.4.44-.82.87-1.24,1.3-.15.16-.29.32-.45.48h0a48.36,48.36,0,0,1-68.35,0c-.75-.75-1.51-1.48-2.29-2.18A62.86,62.86,0,0,0,0,331.5v15a48,48,0,0,1,34.18,14.16,48.33,48.33,0,0,1,0,68.36,63,63,0,0,0-18.55,44.79,63.58,63.58,0,0,0,.69,9.39,62.83,62.83,0,0,0,17.86,35.4,48.33,48.33,0,0,1,0,68.36A48,48,0,0,1,0,601.12v15a63,63,0,0,0,44.79-18.55,48.29,48.29,0,0,1,82.47,34.18h15A63.17,63.17,0,0,0,123.76,587a48.34,48.34,0,0,1,64.8-71.59q1.84,1.51,3.56,3.23a48.39,48.39,0,0,1,0,68.36,62.93,62.93,0,0,0-18.55,44.79h15a48.34,48.34,0,0,1,82.52-34.18,63.34,63.34,0,0,0,89.57,0,48.32,48.32,0,0,1,82.5,34.18h15A63.14,63.14,0,0,0,439.63,587,48.34,48.34,0,1,1,508,587a63,63,0,0,0-18.55,44.79h15A48.34,48.34,0,0,1,587,597.57a63,63,0,0,0,44.79,18.55v-15a48.34,48.34,0,0,1-34.18-82.52,63.4,63.4,0,0,0,0-89.57,48.34,48.34,0,0,1,34.18-82.52v-15a62.9,62.9,0,0,0-42.5,16.37c-.78.7-1.54,1.43-2.29,2.18a48.34,48.34,0,1,1,0-68.36,63,63,0,0,0,44.79,18.55v-15a48.34,48.34,0,0,1-34.18-82.52,63.42,63.42,0,0,0,0-89.58,48.34,48.34,0,0,1,34.18-82.52v-15A63,63,0,0,0,587,34.18a48.33,48.33,0,0,1-68.36,0A48,48,0,0,1,504.44,0h-15A62.93,62.93,0,0,0,508,44.79a48.34,48.34,0,1,1-68.36,68.36h0a48.33,48.33,0,0,1,0-68.35c.77-.77,1.51-1.55,2.23-2.35.08-.08.15-.17.23-.26.64-.72,1.27-1.45,1.88-2.19l0,0A62.88,62.88,0,0,0,458.18,0h-15a48.19,48.19,0,0,1-10.78,30.48l0,0c-.46.56-.94,1.12-1.43,1.66l-.18.21c-.55.61-1.12,1.21-1.7,1.79a48,48,0,0,1-34.18,14.16,48,48,0,0,1-34.19-14.16,62.93,62.93,0,0,0-44.78-18.55h0a63,63,0,0,0-44.79,18.55,48,48,0,0,1-34.18,14.16,48.06,48.06,0,0,1-34.18-14.15h0a48,48,0,0,1-11.35-17.86A48.28,48.28,0,0,1,188.58.69c0-.23,0-.46,0-.69h-15c0,.59,0,1.17,0,1.76s0,.94,0,1.4.09,1.19.14,1.79c0,.45.05.9.09,1.34s.13,1.07.2,1.6.11,1,.18,1.5a62.91,62.91,0,0,0,17.87,35.4h0a48.34,48.34,0,1,1-68.36,0c.76-.77,1.51-1.55,2.23-2.35l.15-.18A62.86,62.86,0,0,0,142.31,0h-15a48.18,48.18,0,0,1-12.33,32.29l-.08.1c-.55.61-1.12,1.2-1.71,1.79a48.33,48.33,0,0,1-68.36,0A63,63,0,0,0,0,15.63H0v15A48,48,0,0,1,34.18,44.79ZM97.27,255.21a64.08,64.08,0,0,0-36.61,0,63.55,63.55,0,0,0,2.68-18.3,63.23,63.23,0,0,0-2.68-18.31,63.85,63.85,0,0,0,36.61,0,64.08,64.08,0,0,0,0,36.61Zm26.48,105.46h0l.44-.46c.6-.62,1.2-1.23,1.77-1.87.15-.16.29-.33.43-.5.58-.64,1.14-1.29,1.69-2l.12-.16a63.34,63.34,0,0,0-.08-79.78s0,0,0,0c-.59-.73-1.21-1.44-1.84-2.15-.09-.1-.17-.21-.27-.31q-1.08-1.2-2.22-2.34a48.34,48.34,0,1,1,68.36,0,62.91,62.91,0,0,0-17.87,35.39,65.11,65.11,0,0,0-.68,9.4,62.91,62.91,0,0,0,18.55,44.78l0,0a48.34,48.34,0,1,1-68.39,0Zm94.8-142.08a63.91,63.91,0,0,0,36.66,0,64.08,64.08,0,0,0,0,36.61,64,64,0,0,0-36.66,0A63.67,63.67,0,0,0,218.55,218.59Zm18.36,49a48,48,0,0,1,34.18,14.16,63.34,63.34,0,0,0,89.57,0,48.34,48.34,0,1,1,0,68.36c-.74-.75-1.51-1.48-2.29-2.18a63.34,63.34,0,0,0-85,0c-.78.7-1.54,1.43-2.29,2.18a48.33,48.33,0,0,1-68.34,0l0,0a48,48,0,0,1-14.16-34.19,48.57,48.57,0,0,1,.52-7.16,48.38,48.38,0,0,1,47.82-41.17ZM376.54,218.6a63.85,63.85,0,0,0,36.61,0,63.85,63.85,0,0,0,0,36.61,64.08,64.08,0,0,0-36.61,0,63.85,63.85,0,0,0,0-36.61Zm36.61,194.55a63.85,63.85,0,0,0-36.61,0,64.08,64.08,0,0,0,0-36.61,63.85,63.85,0,0,0,36.61,0,63.85,63.85,0,0,0,0,36.61Zm-157.94,0a63.85,63.85,0,0,0-36.61,0,63.85,63.85,0,0,0,0-36.61,63.85,63.85,0,0,0,36.61,0,64.08,64.08,0,0,0,0,36.61ZM60.66,376.54a64.08,64.08,0,0,0,36.61,0,64.08,64.08,0,0,0,0,36.61,63.85,63.85,0,0,0-36.61,0,63.57,63.57,0,0,0,2.68-18.31A63.55,63.55,0,0,0,60.66,376.54ZM79,568.41a63.67,63.67,0,0,0-18.31,2.68,63.67,63.67,0,0,0,2.68-18.31,63.55,63.55,0,0,0-2.68-18.3,64.08,64.08,0,0,0,36.61,0,64.08,64.08,0,0,0,0,36.61A63.55,63.55,0,0,0,79,568.41ZM202.73,508a65.61,65.61,0,0,0-7.13-6.15,62.87,62.87,0,0,0-37.66-12.4h0A62.93,62.93,0,0,0,113.15,508a48.38,48.38,0,0,1-80.45-20.1,48.65,48.65,0,0,1-2.07-14.08,48.34,48.34,0,0,1,82.52-34.18,63.35,63.35,0,0,0,89.58,0,48.33,48.33,0,0,1,68.34,0l0,0a48.42,48.42,0,0,1,3.5,64.46l-.21.26c-.35.43-.72.85-1.09,1.28l-.52.6-.79.83c-.3.31-.59.63-.89.93a48.33,48.33,0,0,1-68.36,0Zm52.48,63.1a63.91,63.91,0,0,0-36.66,0,63.67,63.67,0,0,0,0-36.64,64,64,0,0,0,36.66,0,64.08,64.08,0,0,0,0,36.61ZM350.06,587a48.34,48.34,0,0,1-68.37-68.36c.3-.29.57-.6.86-.9.46-.47.92-.94,1.35-1.42.19-.21.37-.43.56-.65.53-.6,1.05-1.2,1.56-1.81l.19-.26a63.31,63.31,0,0,0-2.27-82.17h0q-1.1-1.22-2.25-2.37l0,0a48.33,48.33,0,1,1,68.39,0c-.77.76-1.51,1.54-2.23,2.34l-.3.35c-.62.69-1.22,1.39-1.81,2.1l-.06.09a63.32,63.32,0,0,0,0,79.83l.05.06q.88,1.08,1.83,2.13l.28.33c.72.8,1.46,1.58,2.23,2.34a48.33,48.33,0,0,1,0,68.36Zm63.09-15.87a63.85,63.85,0,0,0-36.61,0,63.85,63.85,0,0,0,0-36.61,64.08,64.08,0,0,0,36.61,0,63.85,63.85,0,0,0,0,36.61Zm157.94,0a63.91,63.91,0,0,0-36.66,0,63.84,63.84,0,0,0,0-36.64,64,64,0,0,0,36.66,0,63.85,63.85,0,0,0,0,36.61ZM587,439.63A48.34,48.34,0,1,1,518.6,508c-.75-.74-1.51-1.47-2.29-2.18a63.35,63.35,0,0,0-85,0c-.77.71-1.54,1.44-2.28,2.18a48.34,48.34,0,0,1-68.37,0c-.58-.58-1.15-1.18-1.7-1.78a2.75,2.75,0,0,0-.22-.26c-.47-.53-.94-1.07-1.39-1.62l0-.06a48.42,48.42,0,0,1,0-60.9l.06-.08c.44-.54.9-1.07,1.37-1.6.08-.09.15-.18.24-.27.54-.61,1.11-1.2,1.69-1.79a48.34,48.34,0,0,1,68.37,0,63.34,63.34,0,0,0,89.57,0,48.33,48.33,0,0,1,68.36,0Zm-52.48-63.09a63.85,63.85,0,0,0,36.61,0,63.85,63.85,0,0,0,0,36.61,63.85,63.85,0,0,0-36.61,0,64.08,64.08,0,0,0,0-36.61ZM508,271.09a63.43,63.43,0,0,0-12.52,71.85l.16.33c.4.82.8,1.63,1.23,2.43.21.4.45.8.68,1.2s.55,1,.84,1.48l.21.34A63.71,63.71,0,0,0,508,360.66a48.34,48.34,0,1,1-68.36,0,63.34,63.34,0,0,0,0-89.57,48.34,48.34,0,0,1,34.18-82.52c1.62,0,3.22.08,4.8.23A48.35,48.35,0,0,1,508,271.09Zm63.09-15.88a64,64,0,0,0-36.66,0,63.84,63.84,0,0,0,0-36.64,63.91,63.91,0,0,0,36.66,0,63.85,63.85,0,0,0,0,36.61ZM552.78,63.34a63.56,63.56,0,0,0,18.31-2.67,63.82,63.82,0,0,0,0,36.6,64.08,64.08,0,0,0-36.61,0,64,64,0,0,0,0-36.6A63.54,63.54,0,0,0,552.78,63.34ZM429,123.75h0A63.37,63.37,0,0,0,508.49,132a64.2,64.2,0,0,0,10.11-8.23,48.34,48.34,0,1,1,0,68.36,63.53,63.53,0,0,0-7.12-6.15A63.37,63.37,0,0,0,429,192.12a48.34,48.34,0,0,1-68.37,0l-.23-.25c-.5-.5-1-1-1.46-1.53l-.32-.37c-.44-.5-.87-1-1.29-1.51a1.47,1.47,0,0,1-.1-.13,48.41,48.41,0,0,1,0-60.84l.06-.07c.44-.54.9-1.08,1.37-1.6l.24-.28c.54-.6,1.11-1.2,1.69-1.78a48.34,48.34,0,0,1,68.36,0Zm-52.53-63.1a63.62,63.62,0,0,0,18.36,2.69,63.54,63.54,0,0,0,18.3-2.67,63.82,63.82,0,0,0,0,36.6,64,64,0,0,0-36.66,0A63.67,63.67,0,0,0,376.49,60.65Zm-94.8-15.86c1.15-1.14,2.33-2.22,3.56-3.23a48.34,48.34,0,0,1,64.81,71.59c-.77.77-1.51,1.55-2.23,2.34l-.3.35c-.62.7-1.22,1.39-1.81,2.11l-.06.08a63.35,63.35,0,0,0,0,79.79,1,1,0,0,0,.08.11c.57.7,1.17,1.38,1.77,2.06l.35.4c.64.71,1.31,1.41,2,2.1l.23.24a48.34,48.34,0,1,1-68.37,0,63.32,63.32,0,0,0,0-89.58l0,0a48.36,48.36,0,0,1,0-68.34ZM236.91,63.34a63.54,63.54,0,0,0,18.3-2.67,64,64,0,0,0,0,36.6,64.08,64.08,0,0,0-36.61,0,63.82,63.82,0,0,0,0-36.6A63.61,63.61,0,0,0,236.91,63.34ZM113.15,123.76a63.35,63.35,0,0,0,89.58,0h0a48.34,48.34,0,0,1,68.34,0l0,0c.31.31.61.64.91,1s.52.53.77.8.35.42.53.62c.37.42.73.83,1.08,1.26l.22.28a48.41,48.41,0,0,1-1.7,62.52l-.11.12c-.55.61-1.11,1.21-1.7,1.8a48.33,48.33,0,0,1-68.36,0,62.91,62.91,0,0,0-44.79-18.55h0a62.89,62.89,0,0,0-44.79,18.55,48.34,48.34,0,0,1-82.1-27.83,49.55,49.55,0,0,1-.42-6.35,48.34,48.34,0,0,1,82.52-34.18ZM60.66,60.66A63.67,63.67,0,0,0,79,63.34a63.55,63.55,0,0,0,18.3-2.68,64.08,64.08,0,0,0,0,36.61,64.08,64.08,0,0,0-36.61,0A63.55,63.55,0,0,0,63.34,79,63.67,63.67,0,0,0,60.66,60.66Z"/></g></g></svg>